<?xml version="1.0" encoding="utf-8"?>
<!-- Generator: Adobe Illustrator 25.4.1, SVG Export Plug-In . SVG Version: 6.00 Build 0)  -->
<svg version="1.1" id="visual" xmlns="http://www.w3.org/2000/svg" xmlns:xlink="http://www.w3.org/1999/xlink" x="0px" y="0px"
	 viewBox="0 0 900 300" style="enable-background:new 0 0 900 300;" xml:space="preserve">
<style type="text/css">
	.st0{fill:#0066FF;}
	.st1{fill:#0080FE;}
	.st2{fill:#759EFF;}
	.st3{fill:#AABDFF;}
	.st4{fill:#D6DDFF;}
	.st5{fill:#FFFFFF;}
</style>
<rect class="st0" width="900" height="300"/>
<path class="st1" d="M0,159l100-60l100,60l100-31l100,18l100-74l100,93l100-10l100-17l100-61v224H800H700H600H500H400H300H200H100H0
	V159z"/>
<path class="st2" d="M0,168l100-48l100,6l100,65l100-35l100,23l100-11l100,22l100-63l100,2v172H800H700H600H500H400H300H200H100H0
	V168z"/>
<path class="st3" d="M0,188l100-12l100-12l100,19l100,21l100-45l100,43l100,2l100-47l100,7v137H800H700H600H500H400H300H200H100H0
	V188z"/>
<path class="st4" d="M0,241l100-18l100-15l100,31l100-23l100-7l100,18l100-28l100,7l100,23v72H800H700H600H500H400H300H200H100H0
	V241z"/>
<path class="st5" d="M0,242l100,6l100-9l100-2l100,16l100-4l100,5l100,13l100-7l100-25v66H800H700H600H500H400H300H200H100H0V242z"
	/>
</svg>
