<?xml version="1.0" encoding="utf-8"?>
<!-- Generator: Adobe Illustrator 25.4.1, SVG Export Plug-In . SVG Version: 6.00 Build 0)  -->
<svg version="1.1" id="visual" xmlns="http://www.w3.org/2000/svg" xmlns:xlink="http://www.w3.org/1999/xlink" x="0px" y="0px"
	 viewBox="0 0 900 300" style="enable-background:new 0 0 900 300;" xml:space="preserve">
<style type="text/css">
	.st0{fill:#4FACF7;}
	.st1{fill:#1C97FD;}
	.st2{fill:#0080FE;}
	.st3{fill:#0066FF;}
</style>
<path class="st0" d="M0,199l21.5-9.5C43,180,86,161,128.8,151.5c42.9-9.5,85.5-9.5,128.4,3.5c42.8,13,85.8,39,128.6,51.5
	c42.9,12.5,85.5,11.5,128.4-1.5c42.8-13,85.8-38,128.6-36.7c42.9,1.4,85.5,29,128.4,30c42.8,1,85.8-24.6,107.3-37.5L900,148v153
	h-21.5c-21.5,0-64.5,0-107.3,0c-42.9,0-85.5,0-128.4,0c-42.8,0-85.8,0-128.6,0c-42.9,0-85.5,0-128.4,0c-42.8,0-85.8,0-128.6,0
	c-42.9,0-85.5,0-128.4,0c-42.8,0-85.8,0-107.3,0H0V199z"/>
<path class="st1" d="M0,233l21.5-2c21.5-2,64.5-6,107.3-6.5c42.9-0.5,85.5,2.5,128.4,6.2c42.8,3.6,85.8,8,128.6,0.1
	c42.9-7.8,85.5-27.8,128.4-39c42.8-11.1,85.8-13.5,128.6-3.6c42.9,9.8,85.5,31.8,128.4,45.6c42.8,13.9,85.8,19.5,107.3,22.4L900,259
	v42h-21.5c-21.5,0-64.5,0-107.3,0c-42.9,0-85.5,0-128.4,0c-42.8,0-85.8,0-128.6,0c-42.9,0-85.5,0-128.4,0c-42.8,0-85.8,0-128.6,0
	c-42.9,0-85.5,0-128.4,0c-42.8,0-85.8,0-107.3,0H0V233z"/>
<path class="st2" d="M0,266l21.5-6.5C43,253,86,240,128.8,230.3c42.9-9.6,85.5-16,128.4-9.6C300,227,343,246,385.8,255.8
	c42.9,9.9,85.5,10.5,128.4,6.9C557,259,600,251,642.8,245c42.9-6,85.5-10,128.4-13.7c42.8-3.6,85.8-7,107.3-8.6L900,221v80h-21.5
	c-21.5,0-64.5,0-107.3,0c-42.9,0-85.5,0-128.4,0c-42.8,0-85.8,0-128.6,0c-42.9,0-85.5,0-128.4,0c-42.8,0-85.8,0-128.6,0
	c-42.9,0-85.5,0-128.4,0c-42.8,0-85.8,0-107.3,0H0V266z"/>
<path class="st3" d="M0,265l21.5,1.2c21.5,1.1,64.5,3.5,107.3,7.8c42.9,4.3,85.5,10.7,128.4,5.3C300,274,343,257,385.8,255.5
	c42.9-1.5,85.5,12.5,128.4,19.7c42.8,7.1,85.8,7.5,128.6,6.3c42.9-1.2,85.5-3.8,128.4-3.3c42.8,0.5,85.8,4.1,107.3,6L900,286v15
	h-21.5c-21.5,0-64.5,0-107.3,0c-42.9,0-85.5,0-128.4,0c-42.8,0-85.8,0-128.6,0c-42.9,0-85.5,0-128.4,0c-42.8,0-85.8,0-128.6,0
	c-42.9,0-85.5,0-128.4,0c-42.8,0-85.8,0-107.3,0H0V265z"/>
</svg>
