<?xml version="1.0" encoding="utf-8"?>
<!-- Generator: Adobe Illustrator 25.4.1, SVG Export Plug-In . SVG Version: 6.00 Build 0)  -->
<svg version="1.1" id="Layer_1" xmlns="http://www.w3.org/2000/svg" xmlns:xlink="http://www.w3.org/1999/xlink" x="0px" y="0px"
	 viewBox="0 0 900 230" style="enable-background:new 0 0 900 230;" xml:space="preserve">
<style type="text/css">
	.st0{fill:#0066FF;}
	.st1{fill:#0080FE;}
	.st2{fill:#E9758B;}
	.st3{fill:#F5A4B0;}
	.st4{fill:#FCD2D7;}
	.st5{fill:#FFFFFF;}
</style>
<rect class="st0" width="899.8" height="230"/>
<path class="st1" d="M-0.2,89.4l100-60l100,60l100-31l100,18l100-74l100,93l100-10l100-17l100-61v224h-100h-100h-100h-100h-100h-100
	h-100h-100h-100L-0.2,89.4L-0.2,89.4z"/>
<path class="st2" d="M-0.2,98.4l100-48l100,6l100,65l100-35l100,23l100-11l100,22l100-63l100,2v172h-100h-100h-100h-100h-100h-100
	h-100h-100h-100L-0.2,98.4L-0.2,98.4z"/>
<path class="st3" d="M-0.2,118.4l100-12l100-12l100,19l100,21l100-45l100,43l100,2l100-47l100,7v137h-100h-100h-100h-100h-100h-100
	h-100h-100h-100L-0.2,118.4L-0.2,118.4z"/>
<path class="st4" d="M-0.2,171.4l100-18l100-15l100,31l100-23l100-7l100,18l100-28l100,7l100,23v72h-100h-100h-100h-100h-100h-100
	h-100h-100h-100L-0.2,171.4L-0.2,171.4z"/>
<path class="st5" d="M-0.2,172.4l100,6l100-9l100-2l100,16l100-4l100,5l100,13l100-7l100-25v66h-100h-100h-100h-100h-100h-100h-100
	h-100h-100L-0.2,172.4L-0.2,172.4z"/>
</svg>
