<svg id="visual" viewBox="0 0 900 300" width="900" height="300" xmlns="http://www.w3.org/2000/svg" xmlns:xlink="http://www.w3.org/1999/xlink" version="1.1"><path d="M0 199L21.5 189.5C43 180 86 161 128.8 151.5C171.7 142 214.3 142 257.2 155C300 168 343 194 385.8 206.5C428.7 219 471.3 218 514.2 205C557 192 600 167 642.8 168.3C685.7 169.7 728.3 197.3 771.2 198.3C814 199.3 857 173.7 878.5 160.8L900 148L900 301L878.5 301C857 301 814 301 771.2 301C728.3 301 685.7 301 642.8 301C600 301 557 301 514.2 301C471.3 301 428.7 301 385.8 301C343 301 300 301 257.2 301C214.3 301 171.7 301 128.8 301C86 301 43 301 21.5 301L0 301Z" fill="#fa7268"></path><path d="M0 233L21.5 231C43 229 86 225 128.8 224.5C171.7 224 214.3 227 257.2 230.7C300 234.3 343 238.7 385.8 230.8C428.7 223 471.3 203 514.2 191.8C557 180.7 600 178.3 642.8 188.2C685.7 198 728.3 220 771.2 233.8C814 247.7 857 253.3 878.5 256.2L900 259L900 301L878.5 301C857 301 814 301 771.2 301C728.3 301 685.7 301 642.8 301C600 301 557 301 514.2 301C471.3 301 428.7 301 385.8 301C343 301 300 301 257.2 301C214.3 301 171.7 301 128.8 301C86 301 43 301 21.5 301L0 301Z" fill="#eb5967"></path><path d="M0 266L21.5 259.5C43 253 86 240 128.8 230.3C171.7 220.7 214.3 214.3 257.2 220.7C300 227 343 246 385.8 255.8C428.7 265.7 471.3 266.3 514.2 262.7C557 259 600 251 642.8 245C685.7 239 728.3 235 771.2 231.3C814 227.7 857 224.3 878.5 222.7L900 221L900 301L878.5 301C857 301 814 301 771.2 301C728.3 301 685.7 301 642.8 301C600 301 557 301 514.2 301C471.3 301 428.7 301 385.8 301C343 301 300 301 257.2 301C214.3 301 171.7 301 128.8 301C86 301 43 301 21.5 301L0 301Z" fill="#da3f67"></path><path d="M0 265L21.5 266.2C43 267.3 86 269.7 128.8 274C171.7 278.3 214.3 284.7 257.2 279.3C300 274 343 257 385.8 255.5C428.7 254 471.3 268 514.2 275.2C557 282.3 600 282.7 642.8 281.5C685.7 280.3 728.3 277.7 771.2 278.2C814 278.7 857 282.3 878.5 284.2L900 286L900 301L878.5 301C857 301 814 301 771.2 301C728.3 301 685.7 301 642.8 301C600 301 557 301 514.2 301C471.3 301 428.7 301 385.8 301C343 301 300 301 257.2 301C214.3 301 171.7 301 128.8 301C86 301 43 301 21.5 301L0 301Z" fill="#c62368"></path></svg>