<svg id="visual" viewBox="0 0 900 300" width="900" height="300" xmlns="http://www.w3.org/2000/svg" xmlns:xlink="http://www.w3.org/1999/xlink" version="1.1"><rect x="0" y="0" width="900" height="300" fill="#C62267"></rect><path d="M0 159L100 99L200 159L300 128L400 146L500 72L600 165L700 155L800 138L900 77L900 301L800 301L700 301L600 301L500 301L400 301L300 301L200 301L100 301L0 301Z" fill="#da3e67"></path><path d="M0 168L100 120L200 126L300 191L400 156L500 179L600 168L700 190L800 127L900 129L900 301L800 301L700 301L600 301L500 301L400 301L300 301L200 301L100 301L0 301Z" fill="#e9758b"></path><path d="M0 188L100 176L200 164L300 183L400 204L500 159L600 202L700 204L800 157L900 164L900 301L800 301L700 301L600 301L500 301L400 301L300 301L200 301L100 301L0 301Z" fill="#f5a4b0"></path><path d="M0 241L100 223L200 208L300 239L400 216L500 209L600 227L700 199L800 206L900 229L900 301L800 301L700 301L600 301L500 301L400 301L300 301L200 301L100 301L0 301Z" fill="#fcd2d7"></path><path d="M0 242L100 248L200 239L300 237L400 253L500 249L600 254L700 267L800 260L900 235L900 301L800 301L700 301L600 301L500 301L400 301L300 301L200 301L100 301L0 301Z" fill="#ffffff"></path></svg>