<?xml version="1.0" encoding="utf-8"?>
<!-- Generator: Adobe Illustrator 25.4.1, SVG Export Plug-In . SVG Version: 6.00 Build 0)  -->
<svg version="1.1" id="Layer_1" xmlns="http://www.w3.org/2000/svg" xmlns:xlink="http://www.w3.org/1999/xlink" x="0px" y="0px"
	 viewBox="0 0 900 350" style="enable-background:new 0 0 900 350;" xml:space="preserve">
<style type="text/css">
	.st0{fill:#0066FF;}
	.st1{fill:#5A7AFF;}
	.st2{fill:#808FFF;}
	.st3{fill:#9EA4FF;}
	.st4{fill:#E9758B;}
	.st5{fill:#F5A3B0;}
	.st6{fill:#FCD3D7;}
	.st7{fill:#FFFFFF;}
</style>
<rect x="-0.4" y="0.4" class="st0" width="900" height="346.8"/>
<path class="st1" d="M0,125.6c0-26,0-52,0-78c75.6,6.7,151.3,13.4,226.9,20c53-19,106.1-38.1,159.1-57.1l128,33.8L643,47l128-10.4
	l129,56.2v246.5H771H643H514H386H257H129H0C0,268.1,0,196.8,0,125.6z"/>
<path class="st2" d="M0,131.6l129-61.1l128,16.4l129,24.5l128-25.1l129,1.1l128-30l129,75.3v206.7H771H643H514H386H257H129H0V131.6z
	"/>
<path class="st3" d="M0,153.9l129-46.4l128,42l129-3.3l128-36.5l129-9.3l128,12l129-0.5v227.4H771H643H514H386H257H129H0V153.9z"/>
<path class="st4" d="M0,177.4l129,19.5l128-36L386,185l128-7.7l129-16.5l128,25.7l129-27.8v180.5H771H643H514H386H257H129H0V177.4z"
	/>
<path class="st5" d="M0,212.6l128.9-9.8l127.9-14.1l128.9,23.4l127.9,10.9l128.9-10.9l127.9-8.7L899,199v136H770.1H642.3H513.4
	H385.6H256.7H128.9H0V212.6z"/>
<path class="st6" d="M0,247.2l129,15.3l128-19.9l129-9.7l128,1.5l129,16.3l128,4.6l129-9.7v93.7H771H643H514H386H257H129H0V247.2z"
	/>
<path class="st7" d="M0,292.2l187-6.2l68,29l131-45l128,25.1L642,280l129,19l129-13v63.4H771H643H514H386H257H129H0V292.2z"/>
</svg>
