<svg id="visual" viewBox="0 0 900 300" width="900" height="300" xmlns="http://www.w3.org/2000/svg" xmlns:xlink="http://www.w3.org/1999/xlink" version="1.1"><rect x="0" y="0" width="900" height="300" fill="#C62267"></rect><path d="M0 99L129 116L257 52L386 120L514 210L643 42L771 130L900 172L900 301L771 301L643 301L514 301L386 301L257 301L129 301L0 301Z" fill="#da3e67"></path><path d="M0 88L129 139L257 81L386 139L514 88L643 178L771 89L900 93L900 301L771 301L643 301L514 301L386 301L257 301L129 301L0 301Z" fill="#c33c72"></path><path d="M0 180L129 91L257 164L386 171L514 216L643 139L771 117L900 97L900 301L771 301L643 301L514 301L386 301L257 301L129 301L0 301Z" fill="#aa3d78"></path><path d="M0 186L129 215L257 139L386 168L514 191L643 238L771 222L900 236L900 301L771 301L643 301L514 301L386 301L257 301L129 301L0 301Z" fill="#8f3f7a"></path><path d="M0 228L129 172L257 226L386 134L514 171L643 181L771 222L900 142L900 301L771 301L643 301L514 301L386 301L257 301L129 301L0 301Z" fill="#743f76"></path><path d="M0 235L129 161L257 176L386 230L514 157L643 205L771 195L900 216L900 301L771 301L643 301L514 301L386 301L257 301L129 301L0 301Z" fill="#5b3e6e"></path><path d="M0 200L129 197L257 183L386 216L514 240L643 191L771 185L900 185L900 301L771 301L643 301L514 301L386 301L257 301L129 301L0 301Z" fill="#443b62"></path><path d="M0 256L129 205L257 252L386 207L514 219L643 208L771 253L900 233L900 301L771 301L643 301L514 301L386 301L257 301L129 301L0 301Z" fill="#333553"></path><path d="M0 258L129 242L257 253L386 279L514 269L643 271L771 244L900 279L900 301L771 301L643 301L514 301L386 301L257 301L129 301L0 301Z" fill="#272f43"></path><path d="M0 254L129 284L257 273L386 286L514 284L643 289L771 285L900 290L900 301L771 301L643 301L514 301L386 301L257 301L129 301L0 301Z" fill="#202731"></path></svg>