<?xml version="1.0" encoding="utf-8"?>
<!-- Generator: Adobe Illustrator 25.4.1, SVG Export Plug-In . SVG Version: 6.00 Build 0)  -->
<svg version="1.1" id="Layer_1" xmlns="http://www.w3.org/2000/svg" xmlns:xlink="http://www.w3.org/1999/xlink" x="0px" y="0px"
	 viewBox="0 0 650 800" style="enable-background:new 0 0 650 800;" xml:space="preserve">
<style type="text/css">
	.st0{fill:#EFF3F0;}
	.st1{fill:#DA3E67;}
	.st2{fill:#F0C933;}
	.st3{fill:#0F90D1;}
	.st4{fill:#453264;}
	.st5{fill:#E0436B;}
	.st6{fill:#7252A4;}
	.st7{fill:#C4C8D4;}
</style>
<path class="st0" d="M425.8,429c49.2,39.9,113.5,131.6,81.2,187.6c-32.3,56-151.3,81.3-189.6,128.6c-38.3,47.3-109,59.4-161.4,16.9
	s-60.6-118.3-17-161.4c43.6-43.1,78.8-108,125.4-154.9C311,399.1,376.5,389.2,425.8,429z"/>
<path class="st0" d="M311.7,328.8c54.4,49.9,132,38.9,187.4-19.4s104.6-247,40.4-284.7s-257.7,43.4-310,99.2S257.3,279,311.7,328.8z
	"/>
<path class="st1" d="M95.7,237.2c48.2,39,113.6,30.2,150.9-15.8s31.3-122.1-15.8-150.9S114.3,30.8,79.9,86.3S47.5,198.2,95.7,237.2z
	"/>
<path class="st2" d="M443.9,419.1c45.6,41.8,110.6,32.6,157.1-16.3c46.4-48.9,37.1-125.4-16.7-157.1
	c-53.8-31.7-113.2-30.5-157.1,16.3C383.3,308.8,398.2,377.3,443.9,419.1z"/>
<path class="st3" d="M105,626.9c42,34,109.1,26.2,152-15.8c42.8-42,36.9-116.8-16.1-152s-114.5-30.5-152,15.8
	C51.3,521.2,63,592.9,105,626.9z"/>
<path class="st2" d="M240.5,662.3c4.6,2.9,10,1,13.2-3.9c3.2-4.9,1.2-11.4-4-13.2s-10.2-0.8-13.2,3.9
	C233.5,653.8,235.9,659.4,240.5,662.3z"/>
<path class="st2" d="M249.2,669.9c1.3,1.2,3.2,0.9,4.5-0.5c1.3-1.4,1.1-3.6-0.5-4.5c-1.5-0.9-3.3-0.9-4.5,0.5
	C247.4,666.7,247.9,668.7,249.2,669.9z"/>
<path class="st4" d="M417.5,462.3c6.2,5.6,14.9,4.4,21.2-2.2c6.3-6.6,5-16.9-2.2-21.2s-15.3-4.1-21.2,2.2
	C409.3,447.4,411.3,456.7,417.5,462.3z"/>
<path class="st4" d="M414,469.6c-1.4,2.4-0.4,5.1,2.2,6.7c2.5,1.6,5.8,0.5,6.7-2.2c0.9-2.6,0.3-5.2-2.2-6.7
	C418.2,465.9,415.4,467.2,414,469.6z"/>
<path class="st5" d="M22.3,401.5c9.6,7.8,22.6,6,30-3.2c7.4-9.2,6.2-24.3-3.2-30c-9.4-5.7-23.2-7.9-30,3.2S12.7,393.7,22.3,401.5z"
	/>
<path class="st5" d="M65.1,373c-3.6,1.4-5,5.3-3.6,9.3c1.4,4,5.9,5.6,9.3,3.5c3.3-2.1,4.9-5.5,3.6-9.3C73,372.7,68.7,371.6,65.1,373
	z"/>
<path class="st6" d="M266.1,377.1c10.2,8.3,28.9-2.1,40.4-13.3c11.5-11.2,9.9-31.3-4.4-40.7s-30.7-8.2-40.8,4.2
	S255.8,368.8,266.1,377.1z"/>
<path class="st7" d="M369.8,249.2c13.5,12.4,32.8,9.6,46.5-4.8c13.7-14.4,11-37.1-4.9-46.4c-15.9-9.3-33.5-9-46.5,4.8
	C351.9,216.5,356.3,236.8,369.8,249.2z"/>
</svg>
