<?xml version="1.0" encoding="utf-8"?>
<!-- Generator: Adobe Illustrator 25.4.1, SVG Export Plug-In . SVG Version: 6.00 Build 0)  -->
<svg version="1.1" id="Layer_1" xmlns="http://www.w3.org/2000/svg" xmlns:xlink="http://www.w3.org/1999/xlink" x="0px" y="0px"
	 viewBox="0 0 900 1700" style="enable-background:new 0 0 900 1700;" xml:space="preserve">
<style type="text/css">
	.st0{fill:#EFF3F0;}
	.st1{fill:#0F90D1;}
	.st2{fill:#DA3E67;}
	.st3{fill:#E0436B;}
	.st4{fill:#7252A4;}
	.st5{fill:#F0C933;}
	.st6{fill:#453264;}
	.st7{fill:#C4C8D4;}
</style>
<g id="Patterns">
	<g id="Waimakariri">
		<g id="Shape" transform="translate(-414.000000, -380.000000)">
			<path class="st0" d="M651.7,1133.3c110.3,101,267.4,78.8,379.7-39.4c112.3-118.2,212-500.5,81.8-576.9s-522.1,87.9-628,201
				S541.4,1032.3,651.7,1133.3z"/>
			<path class="st0" d="M1088.7,1405.9c87,70.5,200.5,232.5,143.4,331.5c-57.1,99-267.4,143.7-335,227.2
				c-67.6,83.5-192.5,104.9-285.1,29.9c-92.6-75-107-209-30-285.1c77-76.1,139.2-190.9,221.6-273.6
				C886,1353.1,1001.7,1335.5,1088.7,1405.9z"/>
			<path class="st1" d="M575.8,1491.5c64.2,52,166.8,40,232.3-24.2s56.4-178.6-24.6-232.3s-175-46.6-232.3,24.2
				C493.8,1330,511.6,1439.5,575.8,1491.5z"/>
			<path class="st2" d="M548.2,677.5c65.5,53,154.3,41,205-21.5s42.5-165.9-21.5-205s-158.3-53.9-205,21.5S482.7,624.5,548.2,677.5z
				"/>
			<path class="st3" d="M687.1,1165.2c18.7,15.2,44.2,11.7,58.7-6.2c14.5-17.9,12.2-47.5-6.2-58.7s-45.3-15.4-58.7,6.2
				S668.4,1150,687.1,1165.2z"/>
			<path class="st3" d="M770.8,1109.4c-7.1,2.7-9.7,10.3-7,18.1c2.8,7.8,11.6,11,18.1,6.9c6.4-4.1,9.6-10.7,7-18.1
				C786.2,1108.9,777.9,1106.8,770.8,1109.4z"/>
			<path class="st4" d="M639.3,785.5c12.3,10,29,7.7,38.5-4.1c9.5-11.8,8-31.2-4-38.5s-29.8-10.1-38.5,4.1
				C626.5,761.2,627,775.5,639.3,785.5z"/>
			<path class="st4" d="M694.3,788.2c5.6,4.5,13.2,3.5,17.5-1.8c4.3-5.3,3.6-14.2-1.8-17.5c-5.5-3.3-13.5-4.6-17.5,1.8
				C688.4,777.1,688.7,783.7,694.3,788.2z"/>
			<path class="st4" d="M852.7,1141.3c20.3,16.5,57.4-4.1,80.2-26.4c22.8-22.3,19.6-62.1-8.7-80.8s-60.9-16.3-80.9,8.3
				S832.4,1124.8,852.7,1141.3z"/>
			<path class="st5" d="M1043.2,1050.7c57.4,52.5,139.1,41,197.5-20.5c58.4-61.5,46.7-157.7-21-197.5
				c-67.7-39.8-142.4-38.3-197.5,20.5C967,912,985.8,998.1,1043.2,1050.7z"/>
			<path class="st5" d="M878.1,1586.6c19.6,12.2,42.8,4.4,56.5-16.8c13.7-21.1,5-48.5-16.9-56.4c-21.9-7.9-43.6-3.4-56.5,16.8
				C848.4,1550.3,858.5,1574.4,878.1,1586.6z"/>
			<path class="st5" d="M763.4,1032.7c5.6,5.1,13.6,4,19.2-2s4.5-15.4-2-19.2c-6.6-3.9-13.9-3.7-19.2,2
				C756,1019.2,757.8,1027.6,763.4,1032.7z"/>
			<path class="st5" d="M915.2,1619.1c5.6,5.1,13.6,4,19.2-2c5.7-6,4.5-15.4-2-19.2c-6.6-3.9-13.9-3.7-19.2,2
				C907.7,1605.6,909.6,1614,915.2,1619.1z"/>
			<path class="st5" d="M784.6,998.6c2.8,2.6,6.8,2,9.6-1c2.8-3,2.3-7.7-1-9.6c-3.3-1.9-6.9-1.9-9.6,1
				C780.9,991.9,781.8,996.1,784.6,998.6z"/>
			<path class="st6" d="M1197.6,1322.1c17,15.6,41.3,12.2,58.6-6.1c17.3-18.2,13.9-46.8-6.2-58.6s-42.3-11.4-58.6,6.1
				S1180.6,1306.5,1197.6,1322.1z"/>
			<path class="st6" d="M1187.9,1342.2c-3.8,6.5-1.1,14.1,6,18.4c7,4.3,16,1.3,18.4-6c2.4-7.3,0.8-14.4-6-18.4
				C1199.6,1332.1,1191.8,1335.6,1187.9,1342.2z"/>
			<path class="st7" d="M1064.1,705.2c23,21.1,55.8,16.4,79.2-8.2c23.4-24.6,18.7-63.2-8.4-79.1c-27.1-15.9-57.1-15.4-79.2,8.2
				C1033.6,649.6,1041.1,684.1,1064.1,705.2z"/>
		</g>
	</g>
</g>
</svg>
