<?xml version="1.0" encoding="utf-8"?>
<!-- Generator: Adobe Illustrator 25.4.1, SVG Export Plug-In . SVG Version: 6.00 Build 0)  -->
<svg version="1.1" id="Layer_1" xmlns="http://www.w3.org/2000/svg" xmlns:xlink="http://www.w3.org/1999/xlink" x="0px" y="0px"
	 viewBox="0 0 900 1190" style="enable-background:new 0 0 900 1190;" xml:space="preserve">
<style type="text/css">
	.st0{fill:#EFF3F0;}
	.st1{fill:#0F90D1;}
	.st2{fill:#DA3E67;}
	.st3{fill:#E0436B;}
	.st4{fill:#7252A4;}
	.st5{fill:#F0C933;}
	.st6{fill:#453264;}
	.st7{fill:#C4C8D4;}
</style>
<g id="Patterns">
	<g id="Waimakariri">
		<g id="Shape" transform="translate(-414.000000, -380.000000)">
			<path class="st0" d="M649.1,1034c108,98.9,261.9,77.2,371.9-38.6s207.7-490.2,80.1-565.1S589.7,516.4,486,627.2
				S541,935.1,649.1,1034z"/>
			<path class="st0" d="M1113.6,1150.7c50.5,65.8,104.2,202.1,46,263.5s-217.4,57.3-280.5,105.7s-156.7,42.3-210.5-27.7
				c-53.7-70-40.9-169,27.6-210.5c68.6-41.5,133.2-113.4,206.8-158.7C976.8,1077.6,1063.2,1084.9,1113.6,1150.7z"/>
			<path class="st1" d="M588.2,1449.7c62.9,50.9,163.4,39.2,227.5-23.7c64.2-62.9,55.2-174.9-24.1-227.5s-171.4-45.6-227.5,23.7
				C507.8,1291.5,525.3,1398.8,588.2,1449.7z"/>
			<path class="st2" d="M561.1,652.4c64.2,51.9,151.1,40.2,200.8-21.1s41.6-162.5-21.1-200.8s-155.1-52.8-200.8,21.1
				S497,600.5,561.1,652.4z"/>
			<path class="st3" d="M697.2,1130.1c18.3,14.9,43.3,11.5,57.5-6.1s11.9-46.5-6.1-57.5s-44.4-15.1-57.5,6.1
				C678,1093.8,678.9,1115.2,697.2,1130.1z"/>
			<path class="st3" d="M779.2,1075.5c-7,2.6-9.5,10.1-6.9,17.7c2.7,7.6,11.4,10.8,17.7,6.8c6.3-4,9.4-10.5,6.9-17.7
				C794.3,1075,786.1,1072.9,779.2,1075.5z"/>
			<path class="st4" d="M662.2,750.6c7.6,6.2,17.9,4.8,23.8-2.5c5.9-7.3,4.9-19.3-2.5-23.8s-18.4-6.2-23.8,2.5
				C654.2,735.5,654.5,744.4,662.2,750.6z"/>
			<path class="st4" d="M696.2,752.2c3.5,2.8,8.2,2.2,10.8-1.1c2.7-3.3,2.2-8.8-1.1-10.8c-3.4-2-8.4-2.8-10.8,1.1
				C692.5,745.4,692.7,749.5,696.2,752.2z"/>
			<path class="st4" d="M1008.7,1537.2c19.9,16.2,56.2-4,78.6-25.9c22.3-21.8,19.2-60.8-8.5-79.1s-59.7-16-79.2,8.1
				C979.9,1464.4,988.8,1521,1008.7,1537.2z"/>
			<path class="st5" d="M1046,1018c56.2,51.4,136.2,40.2,193.5-20.1c57.2-60.2,45.7-154.5-20.6-193.5
				c-66.3-39-139.5-37.5-193.5,20.1C971.3,882.1,989.8,966.4,1046,1018z"/>
			<path class="st5" d="M815.8,1520.1c7.8,4.8,17,1.7,22.4-6.7c5.4-8.4,2-19.2-6.7-22.4s-17.3-1.3-22.4,6.7
				C804.1,1505.7,808.1,1515.3,815.8,1520.1z"/>
			<path class="st5" d="M901.2,868.6c5.7,5.2,13.9,4.1,19.6-2s4.6-15.7-2-19.6c-6.7-4-14.2-3.8-19.6,2
				C893.6,854.8,895.5,863.4,901.2,868.6z"/>
			<path class="st5" d="M830.6,1533c2.2,2,5.4,1.6,7.6-0.8c2.3-2.4,1.8-6.1-0.8-7.6c-2.6-1.5-5.5-1.5-7.6,0.8
				C827.6,1527.7,828.3,1531,830.6,1533z"/>
			<path class="st5" d="M922.9,833.7c2.9,2.7,6.9,2,9.8-1c2.9-3.1,2.3-7.9-1-9.8c-3.4-1.9-7-1.9-9.8,1
				C919.1,826.9,920,831.2,922.9,833.7z"/>
			<path class="st6" d="M1181.3,1127.6c6.8,6.2,16.5,4.9,23.4-2.4c6.9-7.3,5.6-18.7-2.5-23.4c-8-4.7-16.9-4.6-23.4,2.4
				C1172.3,1111.2,1174.5,1121.4,1181.3,1127.6z"/>
			<path class="st6" d="M1177.4,1135.6c-1.5,2.6-0.4,5.6,2.4,7.3c2.8,1.7,6.4,0.5,7.3-2.4c1-2.9,0.3-5.8-2.4-7.3
				C1182.1,1131.6,1179,1133,1177.4,1135.6z"/>
			<path class="st7" d="M1066.5,679.6c22.5,20.7,54.7,16.1,77.6-8c22.9-24.1,18.3-61.9-8.2-77.5s-55.9-15.1-77.6,8
				C1036.6,625.1,1043.9,658.9,1066.5,679.6z"/>
		</g>
	</g>
</g>
</svg>
